<svg width="64" height="64" viewBox="0 0 64 64" fill="none" xmlns="http://www.w3.org/2000/svg">
  <!-- Brain shape with gradient -->
  <path d="M32 8C25.373 8 20 13.373 20 20C20 24.971 23.133 29.256 27.6 30.969C27.2172 31.5986 27 32.3103 27 33.0625V37C27 40.866 30.134 44 34 44H39C39.552 44 40 43.552 40 43C40 42.448 39.552 42 39 42H34C31.238 42 29 39.762 29 37V33.0625C29 32.7559 29.0833 32.4655 29.2289 32.2109C30.1219 32.4016 31.0477 32.5 32 32.5C33.4883 32.5 34.9131 32.2262 36.2266 31.7295C37.3789 34.5781 40.1289 36.5 43.5 36.5C48.1944 36.5 52 32.6944 52 28C52 25.1562 50.5078 22.6406 48.3295 21.2305C48.4365 20.5029 48.5 19.7591 48.5 19C48.5 12.0964 42.9036 6.5 36 6.5C33.4922 6.5 31.1641 7.19531 29.2383 8.39453C28.3631 8.13721 27.4449 8 26.5 8C20.701 8 16 12.701 16 18.5C16 19.5918 16.168 20.6397 16.4736 21.6172C14.9795 23.2988 14 25.5469 14 28C14 33.2383 18.2617 37.5 23.5 37.5C25.0811 37.5 26.5742 37.0928 27.8584 36.3838C28.4375 37.9111 29.8281 39 31.5 39H42.5C43.0523 39 43.5 38.5523 43.5 38C43.5 37.4477 43.0523 37 42.5 37H31.5C30.6719 37 30 36.3281 30 35.5C30 34.6719 30.6719 34 31.5 34H39.5C40.0523 34 40.5 33.5523 40.5 33C40.5 32.4477 40.0523 32 39.5 32H36.5586C38.1348 30.9189 39.4277 29.4883 40.3027 27.8301C40.8564 27.9414 41.4297 28 42 28C46.4183 28 50 24.4183 50 20C50 15.5817 46.4183 12 42 12C41.3379 12 40.6943 12.0801 40.0801 12.2315C38.0752 9.6543 35.0635 8 31.7383 8H32Z" fill="url(#paint0_linear)" />
  
  <!-- Heart symbol -->
  <path d="M43.6134 47.9754C42.1611 46.5231 39.8389 46.5231 38.3866 47.9754L37 49.362L35.6134 47.9754C34.1611 46.5231 31.8389 46.5231 30.3866 47.9754C28.9343 49.4277 28.9343 51.7499 30.3866 53.2022L31.7732 54.5888L37 59.8156L42.2268 54.5888L43.6134 53.2022C45.0657 51.7499 45.0657 49.4277 43.6134 47.9754Z" fill="#F56565" />
  
  <!-- Circular background -->
  <circle cx="32" cy="32" r="30" stroke="url(#paint1_linear)" stroke-width="2" />
  
  <!-- Definitions for gradients -->
  <defs>
    <linearGradient id="paint0_linear" x1="16" y1="6.5" x2="52" y2="44" gradientUnits="userSpaceOnUse">
      <stop stop-color="#4F46E5" />
      <stop offset="1" stop-color="#7C3AED" />
    </linearGradient>
    <linearGradient id="paint1_linear" x1="2" y1="2" x2="62" y2="62" gradientUnits="userSpaceOnUse">
      <stop stop-color="#60A5FA" />
      <stop offset="1" stop-color="#7C3AED" />
    </linearGradient>
  </defs>
</svg> 